<svg id="visual" viewBox="0 0 900 600" width="900" height="600" xmlns="http://www.w3.org/2000/svg" xmlns:xlink="http://www.w3.org/1999/xlink" version="1.1"><rect x="0" y="0" width="900" height="600" fill="#001220"></rect><path d="M0 362L21.5 360.3C43 358.7 86 355.3 128.8 365.5C171.7 375.7 214.3 399.3 257.2 403.2C300 407 343 391 385.8 389C428.7 387 471.3 399 514.2 402.5C557 406 600 401 642.8 398C685.7 395 728.3 394 771.2 390.8C814 387.7 857 382.3 878.5 379.7L900 377L900 601L878.5 601C857 601 814 601 771.2 601C728.3 601 685.7 601 642.8 601C600 601 557 601 514.2 601C471.3 601 428.7 601 385.8 601C343 601 300 601 257.2 601C214.3 601 171.7 601 128.8 601C86 601 43 601 21.5 601L0 601Z" fill="#fa7268"></path><path d="M0 395L21.5 400.5C43 406 86 417 128.8 422.8C171.7 428.7 214.3 429.3 257.2 429.8C300 430.3 343 430.7 385.8 426.5C428.7 422.3 471.3 413.7 514.2 420.2C557 426.7 600 448.3 642.8 456.8C685.7 465.3 728.3 460.7 771.2 460.3C814 460 857 464 878.5 466L900 468L900 601L878.5 601C857 601 814 601 771.2 601C728.3 601 685.7 601 642.8 601C600 601 557 601 514.2 601C471.3 601 428.7 601 385.8 601C343 601 300 601 257.2 601C214.3 601 171.7 601 128.8 601C86 601 43 601 21.5 601L0 601Z" fill="#ef5f67"></path><path d="M0 511L21.5 506C43 501 86 491 128.8 482.8C171.7 474.7 214.3 468.3 257.2 467.7C300 467 343 472 385.8 476.7C428.7 481.3 471.3 485.7 514.2 486.8C557 488 600 486 642.8 487.7C685.7 489.3 728.3 494.7 771.2 489.8C814 485 857 470 878.5 462.5L900 455L900 601L878.5 601C857 601 814 601 771.2 601C728.3 601 685.7 601 642.8 601C600 601 557 601 514.2 601C471.3 601 428.7 601 385.8 601C343 601 300 601 257.2 601C214.3 601 171.7 601 128.8 601C86 601 43 601 21.5 601L0 601Z" fill="#e34c67"></path><path d="M0 514L21.5 511.5C43 509 86 504 128.8 503.3C171.7 502.7 214.3 506.3 257.2 510.2C300 514 343 518 385.8 513.8C428.7 509.7 471.3 497.3 514.2 497.7C557 498 600 511 642.8 514.8C685.7 518.7 728.3 513.3 771.2 509.7C814 506 857 504 878.5 503L900 502L900 601L878.5 601C857 601 814 601 771.2 601C728.3 601 685.7 601 642.8 601C600 601 557 601 514.2 601C471.3 601 428.7 601 385.8 601C343 601 300 601 257.2 601C214.3 601 171.7 601 128.8 601C86 601 43 601 21.5 601L0 601Z" fill="#d53867"></path><path d="M0 535L21.5 538.7C43 542.3 86 549.7 128.8 555.3C171.7 561 214.3 565 257.2 560C300 555 343 541 385.8 534C428.7 527 471.3 527 514.2 530.3C557 533.7 600 540.3 642.8 547.7C685.7 555 728.3 563 771.2 563.2C814 563.3 857 555.7 878.5 551.8L900 548L900 601L878.5 601C857 601 814 601 771.2 601C728.3 601 685.7 601 642.8 601C600 601 557 601 514.2 601C471.3 601 428.7 601 385.8 601C343 601 300 601 257.2 601C214.3 601 171.7 601 128.8 601C86 601 43 601 21.5 601L0 601Z" fill="#c62368"></path></svg>